<svg version="1.1" id="Layer_1" xmlns="http://www.w3.org/2000/svg" xmlns:xlink="http://www.w3.org/1999/xlink" x="0px" y="0px"
	 width="100%" viewBox="0 0 592 544" enable-background="new 0 0 592 544" xml:space="preserve">
<path fill="#000000" opacity="1.000000" stroke="none" 
	d="
M593.000000,419.583344 
	C582.175476,420.054718 571.350891,420.139069 560.526367,420.133698 
	C558.805237,420.132843 556.461853,420.638855 556.011597,418.157898 
	C555.490173,415.285065 557.976562,415.158844 559.882568,414.719391 
	C564.516846,413.651001 566.580627,410.368408 566.609558,406.014526 
	C566.734863,387.193390 566.895264,368.366730 566.564026,349.550537 
	C566.381958,339.205139 561.562134,333.277740 553.945557,332.368927 
	C543.918884,331.172577 536.042175,336.345032 533.060608,346.184998 
	C532.049316,349.522522 531.312317,352.914551 531.323181,356.460266 
	C531.371948,372.450653 531.322510,388.441315 531.361328,404.431763 
	C531.377991,411.294159 532.469910,412.761108 538.937561,414.757751 
	C540.326782,415.186615 541.476135,415.556366 541.377747,417.307068 
	C541.274841,419.138702 540.247070,420.070435 538.501343,420.071777 
	C526.678162,420.080872 514.854736,420.075256 503.032135,419.984711 
	C501.736328,419.974762 500.282196,419.521149 500.057526,417.855103 
	C499.802551,415.964203 501.393707,415.900513 502.615997,415.453613 
	C509.382751,412.979492 510.643555,411.450043 510.681580,404.193542 
	C510.789001,383.706543 510.794983,363.218597 510.726074,342.731384 
	C510.702667,335.764465 509.415588,334.281311 502.579376,332.330902 
	C501.410767,331.997467 500.142548,331.850006 500.132385,330.371704 
	C500.120819,328.690155 501.545685,328.108307 502.852142,327.952179 
	C511.112610,326.965149 519.306641,325.748688 527.226685,323.025452 
	C529.809082,322.137482 531.254700,323.200897 531.356750,326.190399 
	C531.444275,328.752869 530.556213,331.501007 532.211731,333.895294 
	C534.747559,334.260895 535.802185,332.235443 537.269653,331.037354 
	C549.507202,321.046600 566.466858,319.795898 577.504944,328.231842 
	C584.719360,333.745422 587.206909,341.560547 587.280396,350.199677 
	C587.434692,368.354309 587.345398,386.511108 587.338074,404.667023 
	C587.336365,408.876038 588.176086,412.627716 592.686768,414.857666 
	C593.000000,416.388885 593.000000,417.777802 593.000000,419.583344 
z"/>
<path fill="#000000" opacity="1.000000" stroke="none" 
	d="
M514.999878,537.348206 
	C359.560120,537.348511 204.620346,537.348511 49.248592,537.348511 
	C49.646957,530.201233 44.373734,531.337463 40.009411,531.147217 
	C42.157078,523.935120 42.558216,517.346436 40.074173,510.073090 
	C45.225159,509.598938 50.236557,508.742676 55.249081,508.736053 
	C121.568825,508.648376 187.888931,508.608215 254.208191,508.811005 
	C259.847534,508.828278 262.561768,507.246429 264.939056,501.922180 
	C278.580078,471.371582 294.287903,441.809601 308.870361,411.704651 
	C310.141357,409.080688 311.215118,406.468262 310.591003,403.574310 
	C309.380768,397.962585 309.776398,392.293762 309.756439,386.643494 
	C309.696411,369.647156 309.605103,352.649414 309.773071,335.654694 
	C309.820221,330.886261 308.048645,328.799469 303.319275,329.265228 
	C302.989502,329.297668 302.649902,329.293976 302.320526,329.256775 
	C300.464813,329.047180 298.071503,329.869232 297.671844,326.841553 
	C297.268768,323.788055 299.633789,323.853088 301.524872,323.451263 
	C310.453735,321.554138 317.675415,317.255066 321.722565,308.744873 
	C322.999695,306.059357 323.882812,303.163849 324.716309,300.297577 
	C325.313934,298.242554 326.309357,296.991577 328.557404,297.306396 
	C330.673096,297.602661 331.101105,299.223511 331.114960,301.001556 
	C331.156555,306.333374 331.083588,311.666992 331.191467,316.997131 
	C331.303375,322.526764 332.485748,323.396210 338.095093,323.778534 
	C342.402069,324.072052 347.065308,322.245605 351.482147,325.968109 
	C354.693176,319.967682 357.883423,314.017242 361.059265,308.059143 
	C361.528656,307.178558 361.857391,306.217438 362.374908,305.369049 
	C364.614990,301.696899 365.242310,296.230896 369.121338,294.609589 
	C372.775116,293.082458 376.110840,298.073792 381.282257,298.109406 
	C377.499664,304.808929 374.070465,310.770569 370.746155,316.790161 
	C357.950714,339.960022 344.847900,362.970978 332.636017,386.445038 
	C329.261505,392.931671 330.050659,400.857788 333.770905,407.594574 
	C336.420898,412.393311 342.888550,414.084961 348.311218,411.945709 
	C350.455536,411.099792 352.386261,409.720367 354.434967,408.622467 
	C358.463409,406.463684 359.208466,403.602661 357.737976,399.135498 
	C351.990112,381.674622 353.032684,364.318237 360.476990,347.604034 
	C370.996857,323.984497 389.403168,309.721191 414.656647,304.928223 
	C446.115662,298.957428 479.403259,315.344086 493.047272,343.937805 
	C507.230988,373.662445 501.928772,409.944977 473.740631,433.446747 
	C445.988800,456.584839 403.284454,455.826721 376.129486,429.869995 
	C371.055817,425.020203 367.014587,419.265381 363.455658,413.230011 
	C361.331146,409.627228 359.350220,409.735535 356.403015,412.396942 
	C346.391113,421.437897 334.800537,423.817596 322.131195,419.277924 
	C318.256531,417.889557 316.807892,419.327606 315.122742,422.294098 
	C303.449738,442.842926 291.713287,463.356140 279.891266,483.819641 
	C276.145294,490.303772 272.060760,496.591797 268.167114,502.991455 
	C267.245636,504.505951 265.877960,505.863281 266.060211,507.917480 
	C267.715942,509.173645 269.613708,508.647400 271.369110,508.647949 
	C365.516602,508.676880 459.664093,508.669220 553.811584,508.677094 
	C557.464539,508.677399 561.863220,507.412750 561.635437,513.766602 
	C561.571472,515.551819 563.676514,515.761169 565.196594,515.640808 
	C568.598267,515.371521 569.576294,517.108032 569.376770,520.169006 
	C569.303040,521.299438 569.595764,522.469238 569.822083,523.601013 
	C570.817444,528.577332 569.770081,530.281677 564.824951,531.305481 
	C563.495911,531.580566 561.689819,531.570801 561.657715,533.122131 
	C561.553894,538.128967 558.081604,537.348694 554.990417,537.349548 
	C541.826904,537.353333 528.663452,537.349182 514.999878,537.348206 
M334.306030,329.464752 
	C331.157135,330.362122 331.151306,332.956055 331.136078,335.474152 
	C331.097015,341.939178 331.058380,348.405396 331.146118,354.869415 
	C331.178406,357.249146 330.586578,359.766907 332.487457,363.144958 
	C338.930511,352.014435 344.204834,341.335510 349.252197,329.980255 
	C343.733795,328.823517 339.435852,329.410492 334.306030,329.464752 
M417.895874,360.587433 
	C416.268066,358.701263 414.667236,356.524658 411.818237,358.563141 
	C410.299408,359.649872 409.214905,361.132385 410.065735,363.182739 
	C410.872345,365.126465 412.204163,366.769073 414.464417,366.339050 
	C417.089325,365.839661 418.994659,364.366791 417.895874,360.587433 
M446.278442,363.824463 
	C447.102478,360.591522 445.357697,358.759827 442.634033,357.841736 
	C440.811798,357.227509 439.469971,358.527924 438.757935,360.097015 
	C437.843689,362.111755 438.388489,363.964020 440.051697,365.416199 
	C442.386322,367.454498 444.241791,366.379242 446.278442,363.824463 
M417.321472,391.950409 
	C417.850891,389.547821 417.358704,387.473755 414.719543,386.939697 
	C412.743927,386.539948 410.664856,386.923431 409.759460,389.209320 
	C409.052399,390.994446 409.725433,392.507904 411.158844,393.587097 
	C413.402130,395.276093 415.439362,395.052765 417.321472,391.950409 
M438.434967,390.730927 
	C438.700317,393.795593 440.297913,395.353729 443.362640,394.482635 
	C445.154541,393.973267 446.576233,392.569214 446.451080,390.491058 
	C446.341583,388.672455 445.041840,387.548065 443.335144,387.064453 
	C440.699188,386.317474 439.335815,387.778687 438.434967,390.730927 
z"/>
<path fill="#000000" opacity="1.000000" stroke="none" 
	d="
M141.321243,389.703003 
	C139.400528,405.195343 129.833710,413.086060 116.173103,417.226044 
	C109.586174,419.222260 102.783302,419.962830 95.999573,420.063110 
	C79.683052,420.304321 63.360043,420.110901 47.039680,420.076996 
	C45.709309,420.074219 44.370544,420.022522 43.051376,419.863403 
	C41.717548,419.702454 40.256016,419.435852 40.085850,417.752930 
	C39.893906,415.854614 41.555836,415.858643 42.776138,415.478760 
	C43.411640,415.280914 44.050304,415.087494 44.697414,414.933624 
	C51.887207,413.223938 54.657005,409.797821 54.663929,402.274506 
	C54.693356,370.299347 54.694263,338.324158 54.669922,306.348999 
	C54.665504,300.542847 54.155563,294.742920 48.061283,291.843536 
	C41.508324,288.726044 35.311634,290.790131 29.649899,294.348328 
	C25.880405,296.717316 23.608614,300.384766 22.691408,304.892822 
	C21.107828,312.676056 25.191771,318.866241 33.453552,320.591217 
	C37.463291,321.428436 41.543526,321.941803 42.148956,327.151520 
	C42.656136,331.515839 39.374733,336.385376 34.634777,338.384369 
	C26.987303,341.609528 17.775089,338.062622 13.317742,330.176910 
	C6.921384,318.860748 10.535301,302.607178 21.393774,294.293640 
	C28.473835,288.872955 36.571548,286.271851 45.449238,285.672485 
	C63.240768,284.471283 81.015701,284.390808 98.807770,285.670044 
	C108.464081,286.364349 117.499374,288.736420 125.384796,294.567535 
	C140.145416,305.482727 139.886780,334.065338 118.914879,344.289124 
	C115.325562,346.038879 111.752014,347.792938 107.434563,348.955170 
	C128.323502,354.518219 143.807892,364.458160 141.321243,389.703003 
M76.322693,402.296814 
	C76.344765,411.698822 78.900459,414.339355 88.364365,414.667999 
	C90.358803,414.737274 92.359428,414.735443 94.354164,414.671570 
	C104.969925,414.331665 113.000854,408.104309 116.099495,397.967438 
	C118.698280,389.465820 118.309593,380.884705 116.710892,372.328735 
	C114.862007,362.433807 107.159149,355.113434 97.287453,353.297577 
	C92.016991,352.328033 86.710861,352.396515 81.393196,352.219421 
	C77.446556,352.087982 76.213104,353.512665 76.260826,357.415588 
	C76.439842,372.057556 76.326347,386.703125 76.322693,402.296814 
M104.797485,296.695129 
	C98.517548,291.018677 90.820778,290.457458 82.861366,290.194153 
	C77.930313,290.031006 76.079712,291.392639 76.225449,296.605408 
	C76.569893,308.926331 76.320946,321.263641 76.328430,333.594299 
	C76.337189,348.014709 76.348534,348.053436 90.869820,346.649567 
	C98.769524,345.885895 105.853096,343.096191 108.774696,335.171844 
	C113.582596,322.131287 113.970360,309.170685 104.797485,296.695129 
z"/>
<path fill="#000000" opacity="1.000000" stroke="none" 
	d="
M441.767700,151.642151 
	C440.170563,154.602844 438.655212,157.202927 437.451691,159.940125 
	C436.507416,162.087662 435.163788,162.573730 431.815002,161.316925 
	C444.155548,136.898636 456.422180,112.626518 469.263214,87.217865 
	C459.714752,88.146767 451.495789,88.780792 443.320007,89.771164 
	C412.621704,93.489845 382.034485,98.671524 350.937561,97.267555 
	C329.066101,96.280083 307.936279,92.124298 289.102905,80.215248 
	C276.276489,72.104630 266.085632,61.547470 261.240662,46.712315 
	C259.581879,41.633156 258.551697,36.442875 259.395447,31.022604 
	C261.766632,15.789739 273.151886,7.265970 288.225708,10.026394 
	C303.732666,12.866135 315.921204,21.017252 324.480560,34.348106 
	C325.531708,35.985256 327.980499,38.126938 325.147614,39.801899 
	C322.819000,41.178703 321.803589,38.424591 320.753906,36.856564 
	C313.296967,25.717390 303.192810,18.404295 290.093384,15.255741 
	C271.592590,10.808915 260.286377,22.933441 265.063141,42.811749 
	C268.800934,58.366436 279.462952,68.857155 292.581482,76.890793 
	C307.482880,86.016251 324.055450,90.041397 341.329437,91.817162 
	C364.704865,94.220161 387.828003,91.637131 410.982910,89.022812 
	C429.974731,86.878502 448.865631,83.768440 467.978333,82.806755 
	C471.245880,82.642349 472.638641,80.858421 474.012573,78.463303 
	C477.824066,71.818718 481.723541,65.224625 485.553040,58.590263 
	C487.311646,55.543579 489.385315,52.753117 491.808380,50.200706 
	C496.711365,45.036118 500.501373,43.747681 504.912109,45.835232 
	C509.001953,47.770897 511.713165,53.952263 510.926880,59.647167 
	C509.971893,66.563873 506.560791,72.519852 503.482056,78.609718 
	C502.446075,80.658958 500.954865,82.532539 500.751312,84.855728 
	C501.492218,86.377235 502.846283,86.450356 504.147858,86.753700 
	C523.091003,91.168587 540.491272,98.806717 555.121521,111.890266 
	C573.434692,128.267441 585.265564,148.360016 587.269958,173.114456 
	C590.765137,216.279114 575.347351,251.838486 542.828308,280.290710 
	C525.508179,295.444763 505.953979,307.027374 485.599335,317.440125 
	C485.154541,317.667664 484.721649,317.919800 484.269806,318.131958 
	C482.838837,318.803833 481.342499,319.326599 480.346741,317.567657 
	C479.202881,315.547089 480.553345,314.513672 482.147430,313.671021 
	C489.213165,309.935913 496.435181,306.466370 503.316010,302.417084 
	C524.832947,289.754486 544.908997,275.258850 560.084778,255.022278 
	C573.495850,237.138779 580.724182,216.893219 582.877930,194.653275 
	C585.836731,164.099579 576.485168,138.151123 554.133545,117.181076 
	C539.304504,103.268669 521.362671,95.254425 501.513367,91.244125 
	C497.867615,90.507553 496.034210,91.406853 494.174835,94.835327 
	C483.778687,114.004135 472.791168,132.859711 462.360870,151.995819 
	C457.163086,161.531921 450.371582,162.489548 440.227814,160.689606 
	C452.430939,137.091415 462.413696,112.837929 473.284210,88.962044 
	C462.850769,109.754890 452.417328,130.547745 441.767700,151.642151 
M474.163818,109.700714 
	C477.908539,102.900764 481.653229,96.100815 485.437714,89.228615 
	C482.660156,87.403076 480.838470,87.594009 479.575348,90.445816 
	C478.566681,92.723083 477.311615,94.892540 476.330383,97.180389 
	C473.342560,104.146706 469.516357,110.784927 468.255768,118.517464 
	C470.082947,115.773743 471.910126,113.030014 474.163818,109.700714 
M497.960083,64.835388 
	C498.410461,63.612114 499.191498,62.324043 496.804749,61.311226 
	C491.224518,67.642456 487.474030,75.133263 483.827026,82.872574 
	C487.228271,84.350578 489.008667,83.377335 490.439178,80.746819 
	C493.134827,75.789856 495.626526,70.748230 497.960083,64.835388 
z"/>
<path fill="#000000" opacity="1.000000" stroke="none" 
	d="
M171.101166,217.000000 
	C171.113312,226.660782 171.263321,235.824265 171.082870,244.981232 
	C170.989883,249.700089 171.910690,253.258911 177.386642,253.846588 
	C177.805069,253.891510 178.187561,254.374451 178.559357,254.686417 
	C178.666672,254.776474 178.678253,254.980576 178.767654,255.225235 
	C178.829834,257.045532 177.423141,257.139404 176.087357,257.316986 
	C169.172836,258.236389 162.257751,259.151459 155.343887,260.075836 
	C152.331421,260.478607 150.481323,259.617676 150.629471,256.136230 
	C150.705185,254.357330 150.846100,252.436325 149.189972,251.183960 
	C148.159775,250.945862 147.508057,251.486298 146.897583,252.049118 
	C129.601242,267.994934 100.025642,262.876678 90.695518,237.243454 
	C83.908417,218.596878 84.061531,199.780182 94.985260,182.520187 
	C106.974091,163.577255 128.490585,159.419312 147.477005,171.549103 
	C147.866028,171.797638 148.388779,171.836853 148.866882,171.978989 
	C150.281647,170.782440 149.866531,169.166931 149.867447,167.762222 
	C149.873795,157.935898 149.881454,148.107895 149.704132,138.283768 
	C149.585281,131.699219 147.652618,129.362625 141.470535,127.524597 
	C140.120300,127.123154 138.096863,127.459343 138.075882,125.367859 
	C138.056427,123.429604 139.906464,123.109993 141.336578,122.935295 
	C150.913528,121.765419 160.293167,119.671112 171.039246,116.475159 
	C171.060471,150.235382 171.081299,183.367691 171.101166,217.000000 
M149.983719,204.483276 
	C149.871597,199.159088 150.080643,193.803772 149.568039,188.518417 
	C148.890533,181.532852 146.882294,174.899963 139.716187,171.781250 
	C132.581909,168.676376 125.945496,170.519241 120.150711,175.242722 
	C115.782852,178.803070 113.207222,183.673584 111.657516,189.057571 
	C108.042854,201.615631 108.700203,214.411880 109.805862,227.184967 
	C110.264229,232.480316 111.638832,237.613678 114.293167,242.359741 
	C119.202118,251.137161 127.006416,255.371231 135.155746,253.475082 
	C143.604904,251.509186 148.955826,244.039902 150.000031,234.355301 
	C151.042679,224.685135 149.896683,215.097305 149.983719,204.483276 
z"/>
<path fill="#000000" opacity="1.000000" stroke="none" 
	d="
M410.710175,298.158630 
	C400.849060,298.673737 391.692780,297.566956 382.678925,294.740143 
	C375.320770,292.432617 370.106842,288.049988 369.338165,280.278595 
	C368.578644,272.599915 372.375214,266.874054 379.334351,263.370270 
	C379.899719,263.085602 380.373108,262.618134 381.363586,261.884033 
	C375.373688,257.246185 370.643890,252.079224 371.168091,243.995590 
	C371.696564,235.846069 375.499115,230.527069 383.642548,229.242416 
	C383.985565,226.786072 382.273224,226.217941 381.296722,225.267044 
	C362.413788,206.879791 369.673798,175.132874 394.722168,167.013367 
	C405.159393,163.630081 415.651978,163.216415 425.917358,167.786667 
	C430.960480,170.031921 435.724335,167.397400 440.620026,167.200012 
	C444.365570,167.048996 448.086029,166.353287 452.889832,167.464279 
	C448.226349,173.121063 441.774597,170.537079 437.156006,173.066208 
	C436.954163,174.647522 438.347717,175.315720 439.117920,176.303879 
	C457.214874,199.522324 446.159546,228.672806 417.231628,234.267242 
	C409.830322,235.698593 402.697113,235.040146 395.564728,233.050919 
	C394.123474,232.648926 392.674286,232.268585 391.251953,231.806793 
	C388.735809,230.989853 386.971710,232.083984 385.833862,234.151810 
	C384.687775,236.234680 385.641449,237.992462 387.238007,239.476486 
	C390.685394,242.680878 395.022125,243.819641 399.455597,244.687958 
	C411.222656,246.992630 423.269562,246.756851 435.094940,248.629028 
	C447.115570,250.532166 454.683472,256.884705 455.304932,266.047333 
	C456.148132,278.479126 449.941193,287.399872 437.376831,292.282715 
	C428.918640,295.569763 420.093567,297.000153 410.710175,298.158630 
M377.122528,270.720612 
	C371.889496,279.521912 373.676208,286.326233 383.293243,289.763031 
	C399.539917,295.569092 415.964905,295.126526 431.910248,288.300781 
	C438.491760,285.483398 441.761108,280.641266 441.043671,276.485321 
	C440.262909,271.962769 435.787750,269.141052 428.070160,268.323395 
	C418.826630,267.344025 409.576202,266.426605 400.339569,265.386078 
	C392.210693,264.470367 384.057526,263.234497 377.122528,270.720612 
M392.640747,206.905960 
	C393.517059,213.154053 394.042145,219.518585 398.287720,224.691116 
	C402.093994,229.328461 404.306396,229.259140 406.963776,223.951340 
	C412.548767,212.796158 418.067657,201.600662 423.275116,190.266129 
	C426.965088,182.234512 423.507477,173.028259 416.168457,169.994156 
	C408.356537,166.764557 399.282074,171.061356 395.937958,179.534683 
	C392.567200,188.075470 392.044220,196.980530 392.640747,206.905960 
M423.583862,218.024857 
	C426.036011,211.096756 426.864716,203.979828 426.116058,196.613159 
	C419.894012,207.348633 414.713135,218.492310 409.595947,230.091385 
	C417.113495,229.223419 419.017151,227.574448 423.583862,218.024857 
z"/>
<path fill="#000000" opacity="1.000000" stroke="none" 
	d="
M237.832718,258.581543 
	C235.960861,255.462708 238.061630,255.037613 240.050247,254.318344 
	C246.706467,251.910782 247.712524,250.462875 247.719696,243.315323 
	C247.736893,226.155579 247.721741,208.995789 247.689316,191.836060 
	C247.685867,190.011047 247.705902,188.139008 247.331894,186.369797 
	C245.634369,178.339981 241.636703,174.017670 235.502518,173.337906 
	C226.919495,172.386780 218.874741,176.497559 215.652267,183.754807 
	C214.312088,186.773010 213.258179,189.922379 213.263199,193.368317 
	C213.287720,210.193497 213.262131,227.019165 213.146408,243.843903 
	C213.109131,249.261108 214.626724,253.369049 220.563385,254.542007 
	C221.920776,254.810181 223.257599,255.189011 223.073288,256.999786 
	C222.860458,259.090973 221.186249,259.106659 219.704193,259.112030 
	C208.375839,259.153046 197.047302,259.148163 185.718811,259.141754 
	C184.152161,259.140869 182.504730,258.898529 182.271118,257.018890 
	C182.003372,254.864426 183.921768,254.907349 185.316208,254.558502 
	C189.372910,253.543625 191.386719,250.980133 191.875336,246.799149 
	C192.301163,243.155426 192.690308,239.538895 192.686172,235.861771 
	C192.654190,207.373169 192.668106,178.884537 192.681854,150.395905 
	C192.684097,145.734024 192.351105,141.106537 191.974869,136.456161 
	C191.511475,130.728745 188.567810,128.112854 183.284866,127.350243 
	C182.021988,127.167938 180.298767,127.463478 180.133987,125.648918 
	C179.952667,123.652069 181.713303,123.200310 183.168655,123.048401 
	C191.960556,122.130692 200.559158,120.286583 209.099457,118.056053 
	C213.413635,116.929291 213.190048,120.143127 213.192612,122.847130 
	C213.207001,138.007660 213.183899,153.168243 213.174149,168.328796 
	C213.172592,170.752472 213.173904,173.176163 213.173904,175.682587 
	C216.055481,175.505676 217.076416,173.807220 218.429321,172.689270 
	C227.392181,165.283218 237.752060,162.883820 248.864777,165.363480 
	C261.118622,168.097748 268.149475,177.540176 268.267151,190.422684 
	C268.416260,206.748199 268.298096,223.075989 268.346527,239.402649 
	C268.367157,246.356140 268.063782,253.572327 277.626465,254.846451 
	C278.542297,254.968491 279.035492,255.693863 279.075012,256.615479 
	C279.121857,257.707855 278.697662,258.563660 277.586670,258.908173 
	C277.115326,259.054321 276.608917,259.160736 276.118378,259.160980 
	C263.471802,259.167358 250.819336,259.817017 237.832718,258.581543 
z"/>
<path fill="#000000" opacity="1.000000" stroke="none" 
	d="
M160.444885,405.142700 
	C158.981018,400.774567 158.613113,396.675018 158.633331,392.471832 
	C158.712692,375.974091 158.690338,359.475739 158.665894,342.977661 
	C158.653641,334.708954 157.620300,333.221802 149.905106,330.174377 
	C148.896683,329.776093 148.051529,329.348328 147.981445,328.196320 
	C147.893158,326.745361 148.844727,326.047577 150.118774,325.934906 
	C158.722214,325.174042 167.326294,324.411896 175.939026,323.768768 
	C179.122742,323.531036 179.193237,325.946075 179.199615,328.192322 
	C179.223724,336.691223 179.218948,345.190186 179.227692,353.689148 
	C179.241577,367.187531 179.217804,380.686096 179.284744,394.184235 
	C179.343353,406.005646 183.732376,412.297760 192.175323,412.875854 
	C203.305054,413.637909 212.583069,406.700562 213.631912,395.813141 
	C215.518646,376.227936 215.287872,356.583130 213.617905,336.974701 
	C213.268219,332.868591 210.776932,330.359619 206.752518,329.421326 
	C205.234940,329.067505 202.918152,329.536682 203.068024,327.101044 
	C203.226715,324.522217 205.642502,324.958862 207.355759,324.804810 
	C214.637238,324.150146 221.932877,323.649139 229.210693,322.958740 
	C234.591049,322.448334 235.239029,322.912415 235.245331,328.490814 
	C235.271866,351.988098 235.266815,375.485352 235.276489,398.982635 
	C235.277313,400.982330 235.267075,402.982941 235.321411,404.981506 
	C235.483688,410.952972 236.608841,412.189453 242.460144,412.880005 
	C244.083969,413.071594 246.148743,412.845062 245.985138,415.309357 
	C245.850113,417.342712 243.998154,417.188843 242.530334,417.341431 
	C233.496506,418.280823 224.586136,420.443878 215.536072,420.473541 
	C213.702637,417.111786 215.723679,413.403900 213.189041,410.023651 
	C202.496933,420.308228 190.007141,424.503296 175.500336,419.968536 
	C168.229431,417.695679 163.407684,412.558502 160.444885,405.142700 
z"/>
<path fill="#000000" opacity="1.000000" stroke="none" 
	d="
M508.801392,190.057831 
	C508.770233,188.250626 508.769287,186.917358 508.707855,185.586899 
	C508.028107,170.869370 494.854523,164.126602 482.359375,172.095459 
	C477.884644,174.949265 476.726074,179.288696 479.766663,183.597366 
	C482.700684,187.755035 483.508026,191.943085 480.320312,195.996323 
	C477.564240,199.500702 473.680054,200.634552 469.136292,199.474442 
	C463.823944,198.118134 461.449768,194.350616 460.810852,189.427963 
	C459.926117,182.611252 462.568970,176.985977 467.870575,172.747543 
	C481.206207,162.086227 506.972687,161.658966 520.456055,172.021057 
	C526.683716,176.807098 529.145935,183.708603 529.211914,191.348465 
	C529.354065,207.834793 529.245911,224.323135 529.278198,240.810593 
	C529.297607,250.708359 529.960510,251.445724 539.479126,252.885773 
	C539.933777,252.954544 540.346680,253.299088 541.445557,253.848343 
	C537.799927,259.123352 532.021301,258.845062 527.100037,259.845032 
	C519.266113,261.436829 512.508606,259.586578 508.758698,251.799210 
	C506.215454,251.616943 504.950134,253.386612 503.370819,254.479034 
	C494.737885,260.450684 485.388489,262.831238 474.995148,260.408600 
	C457.933228,256.431610 451.289062,236.936508 462.297577,223.058548 
	C467.255981,216.807663 474.063477,213.393158 481.371582,210.833389 
	C487.017242,208.855911 492.733185,207.079819 498.411530,205.195068 
	C511.415771,200.878738 508.437317,200.838760 508.801392,190.057831 
M506.254517,245.610519 
	C508.802734,241.605270 508.755066,237.128693 508.720123,232.615936 
	C508.654022,224.079758 508.701019,215.542709 508.701019,206.300827 
	C502.450714,209.289505 497.074402,211.511993 492.040070,214.342621 
	C482.616608,219.641006 477.408142,227.483521 478.144043,238.761734 
	C478.774200,248.418472 485.897858,254.374771 495.338715,252.512680 
	C499.483826,251.695145 503.046661,249.509384 506.254517,245.610519 
z"/>
<path fill="#000000" opacity="1.000000" stroke="none" 
	d="
M287.067139,252.797043 
	C278.179199,238.417007 282.337463,223.118729 297.031128,215.213959 
	C304.563965,211.161514 312.851654,209.201263 320.957092,206.721848 
	C336.604218,201.935455 335.277557,200.987488 334.171967,185.667648 
	C333.899048,181.885941 333.172272,178.098434 330.873352,174.818359 
	C325.115479,166.602966 310.926544,168.333572 306.141083,173.148972 
	C303.412170,175.894943 302.435791,179.203125 304.884979,183.074081 
	C309.110474,189.752533 308.984558,192.836716 305.035339,196.888809 
	C301.494202,200.522156 296.459961,201.197662 291.747650,198.671692 
	C286.824890,196.032944 284.612640,190.505417 286.164001,184.511642 
	C287.943420,177.636597 292.162628,172.633331 298.503815,169.643509 
	C312.515717,163.037033 326.751526,162.598938 340.907776,169.115036 
	C349.810333,173.212845 354.095734,180.712692 354.246979,190.265015 
	C354.505341,206.581177 354.324554,222.904251 354.335724,239.224411 
	C354.337311,241.549835 354.560974,243.830841 354.948883,246.151062 
	C355.701385,250.652359 357.762726,253.096863 362.585541,252.727646 
	C363.996796,252.619629 365.880341,252.356995 366.130737,254.476669 
	C366.368042,256.485687 364.529510,256.742981 363.171051,257.239288 
	C357.664337,259.251099 352.030731,260.711060 346.109161,260.239685 
	C342.230225,259.930908 338.262939,259.144653 336.133209,255.516327 
	C333.909027,251.727066 331.832001,252.526947 328.937988,254.595871 
	C320.053223,260.947632 310.178101,262.742584 299.551086,260.327576 
	C294.712250,259.227936 290.571259,256.872467 287.067139,252.797043 
M320.073761,252.647858 
	C329.152710,250.533417 333.967224,246.050598 334.464844,237.798294 
	C334.985199,229.169495 334.648407,220.486404 334.603912,211.827469 
	C334.587189,208.571228 332.737823,207.723022 329.938080,208.917053 
	C325.960510,210.613403 322.025146,212.413940 318.113556,214.258621 
	C309.996399,218.086624 305.312225,224.353943 303.766052,233.323334 
	C301.865448,244.348557 308.134674,252.470139 320.073761,252.647858 
z"/>
<path fill="#000000" opacity="1.000000" stroke="none" 
	d="
M256.674347,360.999939 
	C256.671448,351.838013 256.531006,343.173004 256.729309,334.515686 
	C256.817108,330.682312 255.569336,329.118683 251.599350,329.139893 
	C249.107452,329.153168 244.975021,330.855927 244.546417,326.774323 
	C244.092468,322.451080 248.656876,323.723755 250.987579,323.204895 
	C262.496185,320.642761 268.170074,312.583496 271.642761,302.256989 
	C272.492096,299.731537 272.885406,296.760651 277.515808,298.443848 
	C277.515808,304.659119 277.681122,311.090515 277.456177,317.508240 
	C277.312500,321.607727 278.496338,323.920837 282.994629,323.759613 
	C286.153778,323.646454 289.323364,323.780731 292.487061,323.856598 
	C294.202515,323.897705 296.007751,324.045776 296.104431,326.340820 
	C296.216858,329.010254 294.195221,329.085938 292.316528,329.126648 
	C288.819672,329.202423 285.320160,329.277344 281.823853,329.222473 
	C278.721588,329.173798 277.305939,330.428436 277.317230,333.675171 
	C277.392578,355.329559 277.331055,376.984436 277.427002,398.638702 
	C277.437927,401.101440 277.914154,403.627716 278.583313,406.009735 
	C280.587616,413.144470 289.436859,415.080658 296.899292,410.175140 
	C298.834625,408.902985 300.346710,406.533569 302.955170,407.049255 
	C304.135498,408.646729 303.427856,409.697510 302.857300,410.666260 
	C295.884125,422.506134 271.954407,425.349091 262.461731,415.456696 
	C258.460693,411.287170 256.691620,406.200531 256.683685,400.478455 
	C256.665649,387.485657 256.675903,374.492767 256.674347,360.999939 
z"/>
<path fill="#000000" opacity="1.000000" stroke="none" 
	d="
M383.180267,281.932251 
	C379.119843,277.787903 381.722931,274.139679 383.679596,270.827362 
	C385.709625,267.390961 389.125580,268.739807 392.818909,269.234467 
	C392.327454,274.193573 390.532379,278.355560 387.906128,282.144135 
	C386.709106,283.870941 384.971832,283.188354 383.180267,281.932251 
z"/>
</svg>