<?xml version="1.0" encoding="UTF-8"?>
<svg version="1.1" xmlns="http://www.w3.org/2000/svg" width="538" height="499">
<path d="M0 0 C0.82835861 -0.00423477 1.65671722 -0.00846954 2.51017761 -0.01283264 C5.19433648 -0.02272826 7.8783261 -0.02275323 10.5625 -0.01953125 C11.47432037 -0.018927 12.38614075 -0.01832275 13.32559204 -0.0177002 C26.1627043 0.00553209 38.86206681 0.10859029 51.5625 2.16796875 C52.38024902 2.296875 53.19799805 2.42578125 54.04052734 2.55859375 C64.91284246 4.3253194 75.44894483 6.88245619 86.04150391 9.87695312 C102.91459595 14.57465981 120.11179315 17.72239928 137.5625 19.16796875 C138.7484375 19.27882813 139.934375 19.3896875 141.15625 19.50390625 C177.52052864 22.48062817 213.00524376 18.09010791 247.96972656 8.0559082 C269.21453526 2.03961552 290.03049661 -0.01187249 312.02758789 0.03759766 C314.88628359 0.04299003 317.74482448 0.03760754 320.60351562 0.03125 C322.44010451 0.03191032 324.2766933 0.03319051 326.11328125 0.03515625 C326.95820633 0.03313202 327.80313141 0.03110779 328.67366028 0.02902222 C332.15410778 0.04270833 335.4381258 0.14961532 338.88793945 0.65869141 C344.18800577 1.39325644 349.45970406 1.38443515 354.8046875 1.44921875 C356.55085861 1.47683289 356.55085861 1.47683289 358.33230591 1.50500488 C363.29729268 1.58350533 368.26240491 1.65176994 373.22753906 1.72021484 C376.85749416 1.77174716 380.48732586 1.82903127 384.1171875 1.88671875 C385.24937714 1.90029419 386.38156677 1.91386963 387.54806519 1.92785645 C388.58649567 1.94457397 389.62492615 1.9612915 390.69482422 1.97851562 C391.61302948 1.9910437 392.53123474 2.00357178 393.4772644 2.01647949 C395.5625 2.16796875 395.5625 2.16796875 396.5625 3.16796875 C396.5625 8.11796875 396.5625 13.06796875 396.5625 18.16796875 C384.6825 18.49796875 372.8025 18.82796875 360.5625 19.16796875 C363.5325 24.11796875 366.5025 29.06796875 369.5625 34.16796875 C370.86864711 37.08356306 371.9898237 39.67429545 372.9375 42.66796875 C373.17098145 43.37679199 373.40446289 44.08561523 373.64501953 44.81591797 C381.9020294 70.67172595 380.98432858 98.95475315 368.52880859 123.34814453 C363.85102476 132.15769499 358.50707372 140.94626415 351.5625 148.16796875 C350.9025 148.16796875 350.2425 148.16796875 349.5625 148.16796875 C349.253125 149.28171875 349.253125 149.28171875 348.9375 150.41796875 C347.48121444 153.33053987 346.18805223 154.36926081 343.4375 156.015625 C341.2133932 157.38252397 339.16245717 158.92967801 337.0625 160.48046875 C317.16745682 174.35934618 292.53823404 180.26027474 268.5625 176.04296875 C255.44678579 173.45551493 244.34040356 168.09975925 233.5625 160.16796875 C232.76199219 159.61367187 231.96148437 159.059375 231.13671875 158.48828125 C205.95649494 140.30981225 196.90977734 106.74393346 191.875 77.79296875 C191.69694824 76.68276367 191.51889648 75.57255859 191.33544922 74.42871094 C189.76365574 64.95775811 187.59689289 56.03877111 180.5625 49.16796875 C173.82534397 44.44892478 167.62550551 43.48897881 159.5625 44.16796875 C153.95185929 45.49040746 148.73825599 47.86520246 145.4765625 52.81640625 C140.35171593 62.2569131 138.95885549 73.14840128 137.25 83.60546875 C131.95165575 114.28625014 121.29655183 143.27047972 95.484375 162.515625 C76.28992536 176.0327743 51.98056452 180.2798997 29.015625 176.33203125 C3.40276187 171.11118943 -17.88186505 156.43499629 -32.37109375 134.55859375 C-47.97641918 108.9528802 -51.43002344 81.26912704 -45.4375 52.16796875 C-42.81121377 41.79701363 -38.1619594 26.89242815 -30.4375 19.16796875 C-41.6575 18.83796875 -52.8775 18.50796875 -64.4375 18.16796875 C-64.4375 12.88796875 -64.4375 7.60796875 -64.4375 2.16796875 C-62.88321289 2.1429126 -61.32892578 2.11785645 -59.72753906 2.09204102 C-53.9650843 1.99792292 -48.20274884 1.89771275 -42.44042969 1.7956543 C-39.94566639 1.75232215 -37.45087377 1.71064584 -34.95605469 1.6706543 C-31.37165484 1.61291039 -27.7874024 1.5492274 -24.203125 1.484375 C-23.08633362 1.46766251 -21.96954224 1.45095001 -20.81890869 1.43373108 C-19.77813171 1.41378586 -18.73735474 1.39384064 -17.66503906 1.37329102 C-16.75014709 1.35774673 -15.83525513 1.34220245 -14.89263916 1.32618713 C-9.86333834 1.00208011 -5.12607304 0.00786573 0 0 Z M-14.875 11.35546875 C-15.6484375 12.25265625 -15.6484375 12.25265625 -16.4375 13.16796875 C-10.11369743 13.67273589 -10.11369743 13.67273589 -4.375 11.29296875 C-2.21291538 9.40093001 -2.21291538 9.40093001 -2.4375 7.16796875 C-1.4475 6.83796875 -0.4575 6.50796875 0.5625 6.16796875 C-5.58929891 5.71783712 -10.25553914 7.20979875 -14.875 11.35546875 Z M9.9375 7.41796875 C8.86628906 7.76601562 8.86628906 7.76601562 7.7734375 8.12109375 C4.91634113 9.36997608 4.91634113 9.36997608 0.5625 13.16796875 C23.3325 13.16796875 46.1025 13.16796875 69.5625 13.16796875 C69.5625 12.83796875 69.5625 12.50796875 69.5625 12.16796875 C39.75901765 4.81706517 39.75901765 4.81706517 9.9375 7.41796875 Z M328.5625 6.16796875 C329.325625 6.76609375 330.08875 7.36421875 330.875 7.98046875 C333.5625 10.16796875 333.5625 10.16796875 334.90625 11.79296875 C337.21714465 13.71144733 338.79459205 13.47061451 341.75 13.35546875 C342.65105469 13.32839844 343.55210937 13.30132812 344.48046875 13.2734375 C345.16753906 13.23863281 345.85460937 13.20382813 346.5625 13.16796875 C342.87521968 9.16463583 340.07497978 6.35800963 334.46875 6.0546875 C332.49966538 6.04428741 330.53048171 6.10125751 328.5625 6.16796875 Z M256.5625 12.16796875 C256.5625 12.49796875 256.5625 12.82796875 256.5625 13.16796875 C280.3225 13.16796875 304.0825 13.16796875 328.5625 13.16796875 C322.33323036 8.49601652 317.04445904 6.73211673 309.4375 6.48046875 C308.74785156 6.44630859 308.05820312 6.41214844 307.34765625 6.37695312 C290.11717231 5.56978896 273.28945045 8.2299667 256.5625 12.16796875 Z M-58.4375 8.16796875 C-58.4375 9.81796875 -58.4375 11.46796875 -58.4375 13.16796875 C-53.65040532 13.29155329 -48.86423819 13.38229646 -44.07592773 13.44262695 C-42.4471825 13.46777443 -40.81855015 13.50189753 -39.19018555 13.54516602 C-36.84916366 13.60581425 -34.50963269 13.63417351 -32.16796875 13.65625 C-31.43974411 13.68205643 -30.71151947 13.70786285 -29.96122742 13.73445129 C-27.65366718 13.79153178 -27.65366718 13.79153178 -24.4375 13.16796875 C-23.4475 11.51796875 -22.4575 9.86796875 -21.4375 8.16796875 C-33.6475 8.16796875 -45.8575 8.16796875 -58.4375 8.16796875 Z M351.5625 8.16796875 C351.8925 9.15796875 352.2225 10.14796875 352.5625 11.16796875 C353.2225 11.16796875 353.8825 11.16796875 354.5625 11.16796875 C354.5625 11.82796875 354.5625 12.48796875 354.5625 13.16796875 C366.4425 13.16796875 378.3225 13.16796875 390.5625 13.16796875 C390.5625 11.51796875 390.5625 9.86796875 390.5625 8.16796875 C377.6925 8.16796875 364.8225 8.16796875 351.5625 8.16796875 Z M-22.4375 18.16796875 C-38.23308735 35.11093533 -42.91608227 61.95620802 -42.40136719 84.24389648 C-41.36716286 108.81761419 -31.03918304 131.7802681 -13.125 148.69921875 C-10.02292108 151.39917633 -6.83167599 153.84474311 -3.4375 156.16796875 C-2.49003906 156.82023438 -1.54257813 157.4725 -0.56640625 158.14453125 C7.51560624 163.42702166 15.25816497 166.6357763 24.5625 169.16796875 C25.23853271 169.35343262 25.91456543 169.53889648 26.61108398 169.72998047 C45.59955967 174.49356584 67.5166935 171.74308228 84.5625 162.16796875 C88.00660412 159.97086784 91.3036545 157.62994327 94.5625 155.16796875 C95.42875 154.52859375 96.295 153.88921875 97.1875 153.23046875 C102.10197528 148.96263495 106.75659589 144.46313969 110.5625 139.16796875 C110.2325 138.50796875 109.9025 137.84796875 109.5625 137.16796875 C108.87027344 137.91240234 108.87027344 137.91240234 108.1640625 138.671875 C93.74458247 153.68979195 73.51593253 163.75635232 52.5078125 164.37109375 C29.42558828 164.69085266 10.19481346 161.14466593 -7.4375 145.16796875 C-7.96601562 144.60851562 -8.49453125 144.0490625 -9.0390625 143.47265625 C-10.36247249 141.94057785 -10.36247249 141.94057785 -12.4375 142.16796875 C-12.71335937 141.56726563 -12.98921875 140.9665625 -13.2734375 140.34765625 C-14.46546876 137.89976294 -14.46546876 137.89976294 -17.0625 135.29296875 C-33.02271405 116.95238048 -36.65663069 92.77602657 -35.67138672 69.27392578 C-34.62161521 55.3332231 -29.04704185 43.26702549 -22.4375 31.16796875 C-21.91671875 30.08644531 -21.3959375 29.00492188 -20.859375 27.890625 C-19.18710427 24.6885022 -17.04635713 22.63951761 -14.4375 20.16796875 C-14.1075 19.50796875 -13.7775 18.84796875 -13.4375 18.16796875 C-14.365625 18.16796875 -15.29375 18.16796875 -16.25 18.16796875 C-18.3125 18.16796875 -20.375 18.16796875 -22.4375 18.16796875 Z M-13.54296875 26.6171875 C-28.67895971 46.9961609 -32.88135567 70.74406008 -30.16503906 95.66796875 C-27.85775267 110.30910618 -20.3878526 124.32512269 -10.4375 135.16796875 C-9.76203125 135.93496094 -9.0865625 136.70195312 -8.390625 137.4921875 C5.64999626 152.58329319 25.48969858 159.44863305 45.73388672 160.25439453 C69.08182695 160.38077783 89.02725729 150.19830089 105.75 134.48046875 C124.14797916 115.43175721 131.18690291 89.40668851 130.83984375 63.55078125 C130.62962405 57.47009795 129.54312491 52.50515022 126.5625 47.16796875 C125.94375 46.01361328 125.94375 46.01361328 125.3125 44.8359375 C119.25876279 34.74064278 110.0520855 28.11133663 99.5625 23.16796875 C98.7271875 22.76578125 97.891875 22.36359375 97.03125 21.94921875 C85.41342278 16.80208011 72.18740024 17.99174724 59.7265625 17.96484375 C58.39405016 17.96060268 58.39405016 17.96060268 57.03461838 17.95627594 C52.3474575 17.94138639 47.66032667 17.93208832 42.97314453 17.92773438 C38.14118819 17.92221728 33.30950902 17.89809267 28.47764015 17.86976242 C24.74758075 17.85114875 21.01758895 17.84593146 17.28748703 17.8443985 C15.50530837 17.84137631 13.72313079 17.83336242 11.94099808 17.82021332 C9.45475039 17.80315458 6.96919265 17.80503067 4.48291016 17.81152344 C3.75140747 17.80230865 3.01990479 17.79309387 2.26623535 17.78359985 C-5.1935114 17.84461058 -8.96902418 21.1663211 -13.54296875 26.6171875 Z M211.78515625 35.54296875 C201.15601817 48.09618631 198.56256055 61.26446786 199.31542969 77.27783203 C201.54113943 103.31335762 214.28196854 124.89403306 233.6875 141.85546875 C243.48448373 149.56111927 255.23258542 155.9151948 267.5625 158.16796875 C268.43648438 158.34714844 269.31046875 158.52632812 270.2109375 158.7109375 C291.66986874 161.6371554 312.49934026 157.57615816 330.109375 144.66015625 C347.35127818 131.1932699 358.01458218 111.93111212 361.11328125 90.328125 C363.68806727 68.65041716 359.60495416 47.98142005 346.5625 30.16796875 C341.04367449 22.93898937 341.04367449 22.93898937 333.5625 18.16796875 C330.81434207 17.97213761 328.16798424 17.88446228 325.42016602 17.89331055 C324.60165665 17.88819962 323.78314728 17.88308868 322.93983459 17.87782288 C320.23195076 17.86391859 317.52432157 17.86488575 314.81640625 17.8671875 C312.92512417 17.86329806 311.03384296 17.85896288 309.14256287 17.85420227 C305.17224301 17.84673609 301.20201203 17.84703206 297.23168945 17.85229492 C292.17497667 17.85805831 287.1186339 17.84123674 282.06198215 17.81795025 C278.15056778 17.80311522 274.23924019 17.80235495 270.32780266 17.80545998 C268.46572073 17.8049506 266.60363345 17.79978598 264.74157906 17.78964806 C244.6182641 17.69362017 226.84824369 21.05826363 211.78515625 35.54296875 Z M343.5625 18.16796875 C343.93689209 18.58046875 344.31128418 18.99296875 344.69702148 19.41796875 C360.65357132 37.44421765 367.93497601 60.17823184 366.5625 84.16796875 C364.51575456 106.65658426 356.34678086 126.01083086 340.5625 142.16796875 C339.79550781 142.73773438 339.02851563 143.3075 338.23828125 143.89453125 C337.68527344 144.31476563 337.13226563 144.735 336.5625 145.16796875 C336.5625 145.82796875 336.5625 146.48796875 336.5625 147.16796875 C335.44681641 147.57789063 335.44681641 147.57789063 334.30859375 147.99609375 C331.7464307 149.0894777 329.85518286 150.27514098 327.625 151.91796875 C309.98265811 163.84477509 287.66191078 167.08109434 266.92041016 163.13818359 C249.4095792 159.23201491 233.72080264 149.10224324 220.5625 137.16796875 C222.1317787 140.82677616 224.3944796 143.42324503 227.0625 146.35546875 C227.8565625 147.23589844 228.650625 148.11632812 229.46875 149.0234375 C231.37606089 151.2112371 231.37606089 151.2112371 233.5625 152.16796875 C234.57431659 153.05043379 235.57241753 153.94868649 236.5625 154.85546875 C251.57256559 167.73885154 271.09763859 172.58657112 290.5625 171.16796875 C311.16092802 169.10132779 330.25354226 161.63711226 344.5625 146.16796875 C345.14128906 145.64332031 345.72007812 145.11867188 346.31640625 144.578125 C361.16095276 130.83747823 371.09862964 109.11942525 372.47265625 89.01171875 C373.23031052 65.03031415 370.63118272 41.03771281 354.96484375 21.58984375 C352.14782709 18.73359287 349.64454766 18.21605976 345.75 18.04296875 C345.028125 18.08421875 344.30625 18.12546875 343.5625 18.16796875 Z M112.5625 23.16796875 C115.05824958 25.7677079 117.67829701 28.10806127 120.4375 30.41796875 C127.68046347 36.73200196 134.33690874 45.36323868 135.5625 55.16796875 C136.09875 54.48734375 136.635 53.80671875 137.1875 53.10546875 C137.97125 52.13609375 138.755 51.16671875 139.5625 50.16796875 C139.975 49.60207031 140.3875 49.03617188 140.8125 48.453125 C145.72688153 42.0728058 152.55799141 38.2682864 160.5625 37.16796875 C171.37252966 37.09876241 178.90820173 39.25824031 186.95703125 46.44140625 C189.27216663 48.93116255 190.94836531 51.67807495 192.6171875 54.62890625 C192.92914063 55.13679688 193.24109375 55.6446875 193.5625 56.16796875 C193.8925 56.16796875 194.2225 56.16796875 194.5625 56.16796875 C194.70945312 55.63429687 194.85640625 55.100625 195.0078125 54.55078125 C198.08651933 44.3238126 203.96655717 33.93429493 212.7734375 27.5703125 C213.36382812 27.10753906 213.95421875 26.64476562 214.5625 26.16796875 C214.5625 25.50796875 214.5625 24.84796875 214.5625 24.16796875 C215.2225 23.83796875 215.8825 23.50796875 216.5625 23.16796875 C211.3599897 23.62240858 206.1621235 24.08154451 200.9765625 24.703125 C174.1328007 27.76735241 146.94999112 26.96956494 120.20507812 23.44335938 C117.6353509 23.17556075 115.14391601 23.11882121 112.5625 23.16796875 Z " fill="#FCFCFC" transform="translate(103.4375,78.83203125)"/>
<path d="M0 0 C2.05454967 -0.00958167 4.10804436 -0.04052735 6.16235352 -0.07226562 C16.39570304 -0.11233748 25.63163888 0.31719719 33.31665039 7.71289062 C36.787395 11.6693371 37.07731766 15.80790532 36.99243164 20.89257812 C36.52166552 24.18246693 35.21251541 26.67694849 33.53149414 29.51367188 C32.43046892 31.36362644 32.43046892 31.36362644 32.65649414 34.24023438 C34.30137708 35.9284037 35.96986956 37.59376752 37.65649414 39.24023438 C40.59048993 43.91660309 40.13800378 48.90479691 39.65649414 54.24023438 C37.91582536 59.66702529 34.29800391 63.0953747 29.65649414 66.24023438 C25.23735486 68.4715324 20.96393225 68.59808629 16.10961914 68.68945312 C15.29781189 68.71119095 14.48600464 68.73292877 13.64959717 68.75532532 C11.94188043 68.79908579 10.23404239 68.83832041 8.52612305 68.87329102 C5.90121582 68.92784407 3.27705908 68.99796911 0.65258789 69.0703125 C-1.00754623 69.11094047 -2.66770226 69.15068527 -4.32788086 69.18945312 C-5.11636414 69.21021408 -5.90484741 69.23097504 -6.71722412 69.25236511 C-8.59232345 69.28766689 -10.46830198 69.26945937 -12.34350586 69.24023438 C-14.18033808 67.40340215 -13.47124779 64.45367966 -13.47290039 61.9921875 C-13.47465271 61.34015854 -13.47640503 60.68812958 -13.47821045 60.01634216 C-13.4826279 57.85136285 -13.47969137 55.68646459 -13.47631836 53.52148438 C-13.47699143 52.02315251 -13.47796148 50.52482075 -13.47921753 49.02648926 C-13.48069436 45.88239505 -13.47854044 42.7383292 -13.47387695 39.59423828 C-13.46817966 35.55536899 -13.47145875 31.51656613 -13.47744942 27.47769928 C-13.48105544 24.38258357 -13.47991625 21.28748373 -13.47732162 18.19236755 C-13.47665247 16.70275362 -13.47748038 15.21313827 -13.47980118 13.723526 C-13.48232839 11.64507202 -13.47848619 9.56672706 -13.47290039 7.48828125 C-13.4721048 6.30327026 -13.4713092 5.11825928 -13.4704895 3.89733887 C-13.17073032 -2.3750553 -4.87176666 0.0137249 0 0 Z M-1.34350586 10.24023438 C-1.34350586 16.18023437 -1.34350586 22.12023437 -1.34350586 28.24023438 C11.02064001 29.89805365 11.02064001 29.89805365 22.65649414 26.55273438 C25.16799848 23.64880748 25.65649414 22.07379399 25.65649414 18.24023438 C25.04953029 14.85902197 25.04953029 14.85902197 22.65649414 12.24023438 C15.29574447 9.12378794 6.43628551 10.08768945 -1.34350586 10.24023438 Z M-1.34350586 39.24023438 C-1.34350586 45.51023437 -1.34350586 51.78023438 -1.34350586 58.24023438 C2.36605454 58.37551008 6.07065883 58.47449387 9.78149414 58.55273438 C10.82821289 58.59462891 11.87493164 58.63652344 12.95336914 58.6796875 C19.58075538 58.85754427 19.58075538 58.85754427 25.35571289 56.00195312 C27.65254283 53.24497729 28.46144359 52.25135482 28.34399414 48.74023438 C28.34786133 48.00804687 28.35172852 47.27585937 28.35571289 46.52148438 C27.20958774 42.78217103 25.89489665 41.48672909 22.65649414 39.24023438 C18.53530865 38.62820334 14.49853225 38.76990563 10.34399414 38.92773438 C9.22186523 38.95029297 8.09973633 38.97285156 6.94360352 38.99609375 C4.18066055 39.05487977 1.41840567 39.14455615 -1.34350586 39.24023438 Z " fill="#FDFDFD" transform="translate(312.343505859375,291.759765625)"/>
<path d="M0 0 C34.23529412 0 34.23529412 0 42.375 5.125 C47.1006471 10.30070873 49.19909744 15.4873127 49.5625 22.5 C49.29721584 28.24782344 47.83220676 32.65402486 44 37 C40.82247939 39.34796943 37.53745969 41.24844229 34 43 C42.19116655 56.13763787 42.19116655 56.13763787 52 68 C49.02273586 68.74431603 46.05837723 69.17805904 43 69.375 C42.360625 69.42398438 41.72125 69.47296875 41.0625 69.5234375 C34.85411431 67.94782446 31.01391449 59.85886942 27.75 54.875 C27.20859375 54.06417969 26.6671875 53.25335938 26.109375 52.41796875 C22.13616071 46.40848214 22.13616071 46.40848214 21 43 C17.7 43 14.4 43 11 43 C11 51.25 11 59.5 11 68 C7.37 68 3.74 68 0 68 C0 45.56 0 23.12 0 0 Z M12 10 C11.03911617 12.88265149 10.88329059 14.67662271 10.90234375 17.66796875 C10.90556641 18.56064453 10.90878906 19.45332031 10.91210938 20.37304688 C10.92048828 21.30181641 10.92886719 22.23058594 10.9375 23.1875 C10.94201172 24.12787109 10.94652344 25.06824219 10.95117188 26.03710938 C10.96295374 28.35813712 10.97940442 30.67903644 11 33 C14.04263267 33.10845027 17.08136204 33.18752063 20.125 33.25 C21.40890625 33.30027344 21.40890625 33.30027344 22.71875 33.3515625 C28.48461373 33.4402681 31.59301586 32.80155181 36 29 C37.86185273 25.27629454 37.41600077 21.06400749 37 17 C35.9700931 13.79545952 35.9700931 13.79545952 33 12 C26.0951609 10.05511984 19.129294 9.76235687 12 10 Z " fill="#FDFDFD" transform="translate(135,292)"/>
<path d="M0 0 C0.9075 0.00257813 1.815 0.00515625 2.75 0.0078125 C4.11125 0.00394531 4.11125 0.00394531 5.5 0 C7.75 0.1328125 7.75 0.1328125 8.75 1.1328125 C8.85161714 2.60492066 8.88567763 4.08177472 8.8918457 5.55737305 C8.89888016 6.49892746 8.90591461 7.44048187 8.91316223 8.41056824 C8.91732651 9.43652603 8.92149078 10.46248383 8.92578125 11.51953125 C8.94898741 13.67644197 8.97310506 15.83334303 8.99804688 17.99023438 C9.03312529 21.4026527 9.06247795 24.8147185 9.07592773 28.22729492 C9.09142355 31.51264645 9.13165648 34.79695566 9.17578125 38.08203125 C9.17387283 39.09786789 9.17196442 40.11370453 9.16999817 41.1603241 C9.27244647 47.10754982 9.73695704 50.63155599 13.75 55.1328125 C18.96371742 58.1997051 23.83076049 58.94925933 29.75 58.1328125 C34.08696609 56.58208454 34.08696609 56.58208454 36.75 53.1328125 C37.41 53.1328125 38.07 53.1328125 38.75 53.1328125 C39.49130439 49.79824035 39.88735425 46.68008307 39.93945312 43.26660156 C39.96452942 41.86054657 39.96452942 41.86054657 39.9901123 40.42608643 C40.00368774 39.42696228 40.01726318 38.42783813 40.03125 37.3984375 C40.04965942 36.3646698 40.06806885 35.3309021 40.08703613 34.26580811 C40.16564639 29.84869612 40.23373634 25.43143867 40.30224609 21.01416016 C40.35380025 17.78800516 40.41108675 14.56198813 40.46875 11.3359375 C40.48232544 10.32871643 40.49590088 9.32149536 40.5098877 8.28375244 C40.53496399 6.89661041 40.53496399 6.89661041 40.56054688 5.48144531 C40.57933899 4.25497284 40.57933899 4.25497284 40.59851074 3.00372314 C40.75 1.1328125 40.75 1.1328125 41.75 0.1328125 C43.43608966 0.06075739 45.12500659 0.04895182 46.8125 0.0703125 C47.73160156 0.07933594 48.65070313 0.08835937 49.59765625 0.09765625 C50.30792969 0.10925781 51.01820313 0.12085938 51.75 0.1328125 C51.85176424 7.2493869 51.92161829 14.3657723 51.96972656 21.48291016 C51.98979065 23.9019268 52.01704843 26.32089526 52.05175781 28.73974609 C52.10050341 32.22505618 52.12302164 35.70972266 52.140625 39.1953125 C52.16127014 40.26958496 52.18191528 41.34385742 52.20318604 42.45068359 C52.20545665 50.11992239 50.9797712 55.37029553 45.85546875 61.33984375 C45.22253906 61.86964844 44.58960938 62.39945312 43.9375 62.9453125 C43.31230469 63.48800781 42.68710937 64.03070313 42.04296875 64.58984375 C34.03059332 69.98147628 26.01296193 69.92913433 16.75 69.1328125 C8.96782826 67.5300077 4.19652735 63.62058193 -0.25 57.1328125 C-3.73142444 50.48645675 -3.39839769 43.0542854 -3.3828125 35.73828125 C-3.38376923 34.75032059 -3.38472595 33.76235992 -3.38571167 32.74446106 C-3.3863899 30.66598446 -3.38456059 28.5875057 -3.38037109 26.5090332 C-3.37498923 23.3139172 -3.38034275 20.11893995 -3.38671875 16.92382812 C-3.38605846 14.90364552 -3.38477833 12.883463 -3.3828125 10.86328125 C-3.38483673 9.90294479 -3.38686096 8.94260834 -3.38894653 7.95317078 C-3.38579437 7.07167862 -3.38264221 6.19018646 -3.37939453 5.28198242 C-3.37859894 4.5028801 -3.37780334 3.72377777 -3.37698364 2.92106628 C-3.18360955 0.1978655 -2.71984464 0.16054638 0 0 Z " fill="#FDFDFD" transform="translate(217.25,291.8671875)"/>
<path d="M0 0 C3.63 0 7.26 0 11 0 C11 22.44 11 44.88 11 68 C7.37 68 3.74 68 0 68 C0 45.56 0 23.12 0 0 Z " fill="#FDFDFD" transform="translate(381,292)"/>
<path d="M0 0 C4.35442364 2.26655744 6.82458657 4.97339189 8.99609375 9.31640625 C10.48316872 15.46298278 10.03709532 19.74719945 6.99609375 25.31640625 C4.20881314 29.20170649 1.71621756 30.66239467 -2.81640625 31.81640625 C-7.89383492 32.60219878 -11.63497195 32.06036944 -16.00390625 29.31640625 C-20.0688874 25.60490172 -21.97372961 22.02693269 -22.91015625 16.6875 C-23.10336947 11.80081573 -21.81353442 7.38174275 -18.56640625 3.67578125 C-13.26334729 -0.93788004 -6.70114634 -2.2859661 0 0 Z M-15.00390625 9.31640625 C-16.60079666 12.51018707 -16.37739582 15.8416194 -16.00390625 19.31640625 C-14.75217375 22.195391 -13.70721497 23.76380654 -11.25390625 25.69140625 C-7.86278538 26.63338427 -5.39399422 26.16392824 -2.00390625 25.31640625 C0.31422995 23.42529514 1.6652339 21.97812594 2.99609375 19.31640625 C3.37321952 14.31948978 3.08899987 11.325729 -0.00390625 7.31640625 C-5.6970637 3.52096795 -10.30936006 4.62186006 -15.00390625 9.31640625 Z " fill="#FAFAFA" transform="translate(157.00390625,383.68359375)"/>
<path d="M0 0 C1.4540625 0.0309375 1.4540625 0.0309375 2.9375 0.0625 C6.10410847 6.22905334 8.91530213 12.49582659 11.625 18.875 C12.02783203 19.81537109 12.43066406 20.75574219 12.84570312 21.72460938 C15.79643654 28.63930963 15.79643654 28.63930963 16.9375 32.0625 C14.2975 32.0625 11.6575 32.0625 8.9375 32.0625 C7.4525 28.5975 7.4525 28.5975 5.9375 25.0625 C5.33421875 25.15789062 4.7309375 25.25328125 4.109375 25.3515625 C3.31015625 25.46242188 2.5109375 25.57328125 1.6875 25.6875 C0.50414062 25.86152344 0.50414062 25.86152344 -0.703125 26.0390625 C-3.0625 26.0625 -3.0625 26.0625 -7.0625 24.0625 C-8.0525 27.0325 -9.0425 30.0025 -10.0625 33.0625 C-12.0425 32.7325 -14.0225 32.4025 -16.0625 32.0625 C-15.41016426 28.06924703 -14.17488647 24.64106187 -12.59375 20.921875 C-12.10519531 19.76945312 -11.61664063 18.61703125 -11.11328125 17.4296875 C-10.60152344 16.23601562 -10.08976562 15.04234375 -9.5625 13.8125 C-9.05074219 12.60335938 -8.53898437 11.39421875 -8.01171875 10.1484375 C-3.72243117 0.07596798 -3.72243117 0.07596798 0 0 Z M-1.0625 9.0625 C-2.0525 12.0325 -3.0425 15.0025 -4.0625 18.0625 C-1.4225 18.0625 1.2175 18.0625 3.9375 18.0625 C2.9475 15.0925 1.9575 12.1225 0.9375 9.0625 C0.2775 9.0625 -0.3825 9.0625 -1.0625 9.0625 Z " fill="#FAFAFA" transform="translate(340.0625,382.9375)"/>
<path d="M0 0 C1.31355469 -0.02578125 2.62710938 -0.0515625 3.98046875 -0.078125 C8.0243136 0.26813694 10.3851477 1.12636566 13.8125 3.25 C16.04521843 6.00368606 16.74782328 7.73258624 17.1875 11.25 C16.7562477 14.70001843 15.94098485 16.51337663 13.8125 19.25 C9.14082544 22.27407505 4.19209324 21.37808555 -1.1875 21.25 C-1.1875 24.88 -1.1875 28.51 -1.1875 32.25 C-3.4975 32.25 -5.8075 32.25 -8.1875 32.25 C-8.21215504 27.85343827 -8.23033842 23.4569128 -8.24243164 19.06030273 C-8.24747121 17.56355082 -8.25430287 16.06680384 -8.26293945 14.57006836 C-8.27502159 12.42300193 -8.28073191 10.27600038 -8.28515625 8.12890625 C-8.29039307 6.8354126 -8.29562988 5.54191895 -8.30102539 4.20922852 C-8.08954047 -1.30347843 -4.55567974 0.03454544 0 0 Z M-1.1875 6.25 C-1.1875 9.22 -1.1875 12.19 -1.1875 15.25 C0.235625 15.311875 1.65875 15.37375 3.125 15.4375 C3.92550781 15.47230469 4.72601563 15.50710938 5.55078125 15.54296875 C7.88630188 15.43288893 7.88630188 15.43288893 9.61328125 13.8671875 C11.03792792 12.30831421 11.03792792 12.30831421 10.6875 10.1875 C9.85997907 7.8988757 9.85997907 7.8988757 6.8125 6.25 C4.75540404 6.00944532 4.75540404 6.00944532 2.625 6.125 C1.366875 6.16625 0.10875 6.2075 -1.1875 6.25 Z " fill="#FAFBFB" transform="translate(190.1875,382.75)"/>
<path d="M0 0 C4.70081586 1.68519814 7.23460436 3.85190655 10 8 C10 8.66 10 9.32 10 10 C7.25 10.75 7.25 10.75 4 11 C2.66666667 9.66666667 1.33333333 8.33333333 0 7 C-4.14108223 6.55631262 -7.56999354 6.45925447 -11 9 C-13.3201604 12.77128545 -13.27886707 15.57961998 -12.65625 19.8671875 C-12.07881638 22.30813191 -12.07881638 22.30813191 -9.5 24.625 C-5.20850832 26.31094316 -1.37812128 26.68119857 3 25 C4.30329675 23.02029187 4.30329675 23.02029187 5 21 C7.31 21.33 9.62 21.66 12 22 C11.34 22.33 10.68 22.66 10 23 C9.7525 23.763125 9.505 24.52625 9.25 25.3125 C7.54554362 28.97708123 5.52480653 30.10202725 2 32 C-3.00712127 33.52390647 -7.19722652 32.83577086 -12 31 C-16.24765013 28.35701769 -18.33928545 25.71992555 -20 21 C-20.6715628 15.9714688 -20.60220351 12.20440701 -18.3125 7.625 C-12.61233077 1.15453764 -8.43898094 -0.78270481 0 0 Z " fill="#FAFBFB" transform="translate(302,383)"/>
<path d="M0 0 C8.91 0 17.82 0 27 0 C27 1.98 27 3.96 27 6 C26.67 6.33 26.34 6.66 26 7 C23.03 6.67 20.06 6.34 17 6 C17 14.58 17 23.16 17 32 C12 33 12 33 10 32 C9.67 23.75 9.34 15.5 9 7 C6.36 7 3.72 7 1 7 C0.67 6.67 0.34 6.34 0 6 C0 4.02 0 2.04 0 0 Z " fill="#FAFAFA" transform="translate(217,383)"/>
<path d="M0 0 C1.98 0 3.96 0 6 0 C6 8.58 6 17.16 6 26 C11.28 26 16.56 26 22 26 C22 27.98 22 29.96 22 32 C21.34 32.66 20.68 33.32 20 34 C20 33.34 20 32.68 20 32 C13.4 32 6.8 32 0 32 C0 21.44 0 10.88 0 0 Z " fill="#F6F7F7" transform="translate(370,383)"/>
<path d="M0 0 C1.98 0 3.96 0 6 0 C6 10.56 6 21.12 6 32 C4.02 32 2.04 32 0 32 C0 21.44 0 10.88 0 0 Z " fill="#F9FAFA" transform="translate(259,383)"/>
<path d="M0 0 C1.65 0 3.3 0 5 0 C5 0.33 5 0.66 5 1 C3.35 1 1.7 1 0 1 C0 0.67 0 0.34 0 0 Z " fill="#FFFFFF" transform="translate(259,416)"/>
<path d="M0 0 C4 1 4 1 4 1 Z " fill="#FFFFFF" transform="translate(132,244)"/>
<path d="M0 0 C3 1 3 1 3 1 Z " fill="#DFDFDF" transform="translate(370,416)"/>
<path d="" fill="#FFFFFF" transform="translate(0,0)"/>
<path d="" fill="#FFFFFF" transform="translate(0,0)"/>
<path d="M0 0 C3 1 3 1 3 1 Z " fill="#FFFFFF" transform="translate(109,236)"/>
<path d="" fill="#FFFFFF" transform="translate(0,0)"/>
<path d="" fill="#FFFFFF" transform="translate(0,0)"/>
<path d="M0 0 C3 1 3 1 3 1 Z " fill="#FFFFFF" transform="translate(444,90)"/>
<path d="M0 0 C3 1 3 1 3 1 Z " fill="#FFFFFF" transform="translate(417,77)"/>
<path d="M0 0 C2 1 2 1 2 1 Z " fill="#FFFFFF" transform="translate(326,416)"/>
<path d="M0 0 C2 1 2 1 2 1 Z " fill="#FFFFFF" transform="translate(185,416)"/>
<path d="" fill="#FFFFFF" transform="translate(0,0)"/>
<path d="M0 0 C2 1 2 1 2 1 Z " fill="#FFFFFF" transform="translate(297,390)"/>
<path d="M0 0 C2 1 2 1 2 1 Z " fill="#FFFFFF" transform="translate(338,360)"/>
<path d="" fill="#FFFFFF" transform="translate(0,0)"/>
<path d="" fill="#FFFFFF" transform="translate(0,0)"/>
<path d="" fill="#FFFFFF" transform="translate(0,0)"/>
<path d="" fill="#FFFFFF" transform="translate(0,0)"/>
<path d="" fill="#FFFFFF" transform="translate(0,0)"/>
<path d="M0 0 C2 1 2 1 2 1 Z " fill="#FFFFFF" transform="translate(202,227)"/>
<path d="" fill="#FFFFFF" transform="translate(0,0)"/>
<path d="" fill="#FFFFFF" transform="translate(0,0)"/>
<path d="" fill="#FFFFFF" transform="translate(0,0)"/>
<path d="" fill="#FFFFFF" transform="translate(0,0)"/>
<path d="M0 0 C2 1 2 1 2 1 Z " fill="#FFFFFF" transform="translate(73,117)"/>
<path d="M0 0 C2 1 2 1 2 1 Z " fill="#FFFFFF" transform="translate(440,103)"/>
<path d="M0 0 C2 1 2 1 2 1 Z " fill="#FFFFFF" transform="translate(440,101)"/>
<path d="M0 0 C2 1 2 1 2 1 Z " fill="#FFFFFF" transform="translate(455,100)"/>
<path d="" fill="#FFFFFF" transform="translate(0,0)"/>
<path d="M0 0 C2 1 2 1 2 1 Z " fill="#FFFFFF" transform="translate(81,99)"/>
<path d="M0 0 C2 1 2 1 2 1 Z " fill="#FFFFFF" transform="translate(412,90)"/>
<path d="M0 0 C2 1 2 1 2 1 Z " fill="#FFFFFF" transform="translate(372,90)"/>
<path d="M0 0 C2 1 2 1 2 1 Z " fill="#FFFFFF" transform="translate(485,88)"/>
<path d="M0 0 C2 1 2 1 2 1 Z " fill="#FFFFFF" transform="translate(416,87)"/>
<path d="M0 0 C2 1 2 1 2 1 Z " fill="#FFFFFF" transform="translate(433,77)"/>
<path d="M0 0 C2 1 2 1 2 1 Z " fill="#FFFFFF" transform="translate(425,77)"/>
<path d="M0 0 C2 1 2 1 2 1 Z " fill="#FFFFFF" transform="translate(401,77)"/>
<path d="M0 0 C2 1 2 1 2 1 Z " fill="#FFFFFF" transform="translate(129,77)"/>
<path d="M0 0 C2 1 2 1 2 1 Z " fill="#FFFFFF" transform="translate(121,77)"/>
<path d="M0 0 C2 1 2 1 2 1 Z " fill="#FFFFFF" transform="translate(113,77)"/>
<path d="" fill="#FFFFFF" transform="translate(0,0)"/>
<path d="" fill="#FFFFFF" transform="translate(0,0)"/>
<path d="" fill="#FFFFFF" transform="translate(0,0)"/>
<path d="" fill="#FFFFFF" transform="translate(0,0)"/>
<path d="" fill="#FFFFFF" transform="translate(0,0)"/>
<path d="" fill="#FFFFFF" transform="translate(0,0)"/>
<path d="" fill="#FFFFFF" transform="translate(0,0)"/>
<path d="" fill="#FFFFFF" transform="translate(0,0)"/>
<path d="" fill="#FFFFFF" transform="translate(0,0)"/>
<path d="" fill="#FFFFFF" transform="translate(0,0)"/>
<path d="" fill="#FFFFFF" transform="translate(0,0)"/>
<path d="" fill="#FFFFFF" transform="translate(0,0)"/>
<path d="" fill="#FFFFFF" transform="translate(0,0)"/>
<path d="" fill="#FFFFFF" transform="translate(0,0)"/>
<path d="" fill="#FFFFFF" transform="translate(0,0)"/>
<path d="" fill="#FFFFFF" transform="translate(0,0)"/>
<path d="" fill="#FFFFFF" transform="translate(0,0)"/>
<path d="" fill="#FFFFFF" transform="translate(0,0)"/>
<path d="" fill="#FFFFFF" transform="translate(0,0)"/>
<path d="" fill="#FFFFFF" transform="translate(0,0)"/>
<path d="" fill="#FFFFFF" transform="translate(0,0)"/>
<path d="" fill="#FFFFFF" transform="translate(0,0)"/>
<path d="" fill="#FFFFFF" transform="translate(0,0)"/>
<path d="" fill="#FFFFFF" transform="translate(0,0)"/>
<path d="" fill="#FFFFFF" transform="translate(0,0)"/>
<path d="" fill="#FFFFFF" transform="translate(0,0)"/>
<path d="" fill="#FFFFFF" transform="translate(0,0)"/>
<path d="" fill="#FFFFFF" transform="translate(0,0)"/>
<path d="" fill="#FFFFFF" transform="translate(0,0)"/>
<path d="" fill="#FFFFFF" transform="translate(0,0)"/>
<path d="" fill="#FFFFFF" transform="translate(0,0)"/>
<path d="" fill="#FFFFFF" transform="translate(0,0)"/>
<path d="" fill="#FFFFFF" transform="translate(0,0)"/>
<path d="" fill="#FFFFFF" transform="translate(0,0)"/>
<path d="" fill="#FFFFFF" transform="translate(0,0)"/>
<path d="" fill="#FFFFFF" transform="translate(0,0)"/>
<path d="" fill="#FFFFFF" transform="translate(0,0)"/>
<path d="" fill="#FFFFFF" transform="translate(0,0)"/>
<path d="" fill="#FFFFFF" transform="translate(0,0)"/>
<path d="" fill="#FFFFFF" transform="translate(0,0)"/>
<path d="" fill="#FFFFFF" transform="translate(0,0)"/>
<path d="" fill="#FFFFFF" transform="translate(0,0)"/>
<path d="" fill="#FFFFFF" transform="translate(0,0)"/>
<path d="" fill="#FFFFFF" transform="translate(0,0)"/>
<path d="" fill="#FFFFFF" transform="translate(0,0)"/>
<path d="" fill="#FFFFFF" transform="translate(0,0)"/>
<path d="" fill="#FFFFFF" transform="translate(0,0)"/>
<path d="" fill="#FFFFFF" transform="translate(0,0)"/>
<path d="" fill="#FFFFFF" transform="translate(0,0)"/>
<path d="" fill="#FFFFFF" transform="translate(0,0)"/>
<path d="" fill="#FFFFFF" transform="translate(0,0)"/>
<path d="" fill="#FFFFFF" transform="translate(0,0)"/>
<path d="" fill="#FFFFFF" transform="translate(0,0)"/>
<path d="" fill="#FFFFFF" transform="translate(0,0)"/>
<path d="" fill="#FFFFFF" transform="translate(0,0)"/>
<path d="" fill="#FFFFFF" transform="translate(0,0)"/>
<path d="" fill="#FFFFFF" transform="translate(0,0)"/>
<path d="" fill="#FFFFFF" transform="translate(0,0)"/>
<path d="" fill="#FFFFFF" transform="translate(0,0)"/>
<path d="" fill="#FFFFFF" transform="translate(0,0)"/>
<path d="" fill="#FFFFFF" transform="translate(0,0)"/>
<path d="" fill="#FFFFFF" transform="translate(0,0)"/>
<path d="" fill="#FFFFFF" transform="translate(0,0)"/>
<path d="" fill="#FFFFFF" transform="translate(0,0)"/>
<path d="" fill="#FFFFFF" transform="translate(0,0)"/>
<path d="" fill="#FFFFFF" transform="translate(0,0)"/>
<path d="" fill="#FFFFFF" transform="translate(0,0)"/>
<path d="" fill="#FFFFFF" transform="translate(0,0)"/>
<path d="" fill="#FFFFFF" transform="translate(0,0)"/>
<path d="" fill="#FFFFFF" transform="translate(0,0)"/>
<path d="" fill="#FFFFFF" transform="translate(0,0)"/>
<path d="" fill="#FFFFFF" transform="translate(0,0)"/>
<path d="" fill="#FFFFFF" transform="translate(0,0)"/>
<path d="" fill="#FFFFFF" transform="translate(0,0)"/>
<path d="" fill="#FFFFFF" transform="translate(0,0)"/>
<path d="" fill="#FFFFFF" transform="translate(0,0)"/>
<path d="" fill="#FFFFFF" transform="translate(0,0)"/>
<path d="" fill="#FFFFFF" transform="translate(0,0)"/>
<path d="" fill="#FFFFFF" transform="translate(0,0)"/>
<path d="" fill="#FFFFFF" transform="translate(0,0)"/>
<path d="" fill="#FFFFFF" transform="translate(0,0)"/>
<path d="" fill="#FFFFFF" transform="translate(0,0)"/>
<path d="" fill="#FFFFFF" transform="translate(0,0)"/>
<path d="" fill="#FFFFFF" transform="translate(0,0)"/>
<path d="" fill="#FFFFFF" transform="translate(0,0)"/>
<path d="" fill="#FFFFFF" transform="translate(0,0)"/>
<path d="" fill="#FFFFFF" transform="translate(0,0)"/>
<path d="" fill="#FFFFFF" transform="translate(0,0)"/>
<path d="" fill="#FFFFFF" transform="translate(0,0)"/>
<path d="" fill="#FFFFFF" transform="translate(0,0)"/>
<path d="" fill="#FFFFFF" transform="translate(0,0)"/>
<path d="" fill="#FFFFFF" transform="translate(0,0)"/>
<path d="" fill="#FFFFFF" transform="translate(0,0)"/>
<path d="" fill="#FFFFFF" transform="translate(0,0)"/>
<path d="" fill="#FFFFFF" transform="translate(0,0)"/>
<path d="" fill="#FFFFFF" transform="translate(0,0)"/>
<path d="" fill="#FFFFFF" transform="translate(0,0)"/>
<path d="" fill="#FFFFFF" transform="translate(0,0)"/>
<path d="" fill="#FFFFFF" transform="translate(0,0)"/>
<path d="" fill="#FFFFFF" transform="translate(0,0)"/>
<path d="" fill="#FFFFFF" transform="translate(0,0)"/>
<path d="" fill="#FFFFFF" transform="translate(0,0)"/>
<path d="" fill="#FFFFFF" transform="translate(0,0)"/>
<path d="" fill="#FFFFFF" transform="translate(0,0)"/>
<path d="" fill="#FFFFFF" transform="translate(0,0)"/>
<path d="" fill="#FFFFFF" transform="translate(0,0)"/>
<path d="" fill="#FFFFFF" transform="translate(0,0)"/>
<path d="" fill="#FFFFFF" transform="translate(0,0)"/>
<path d="" fill="#FFFFFF" transform="translate(0,0)"/>
<path d="" fill="#FFFFFF" transform="translate(0,0)"/>
<path d="" fill="#FFFFFF" transform="translate(0,0)"/>
<path d="" fill="#FFFFFF" transform="translate(0,0)"/>
<path d="" fill="#FFFFFF" transform="translate(0,0)"/>
<path d="" fill="#FFFFFF" transform="translate(0,0)"/>
<path d="" fill="#FFFFFF" transform="translate(0,0)"/>
<path d="" fill="#FFFFFF" transform="translate(0,0)"/>
<path d="" fill="#FFFFFF" transform="translate(0,0)"/>
<path d="" fill="#FFFFFF" transform="translate(0,0)"/>
<path d="" fill="#FFFFFF" transform="translate(0,0)"/>
<path d="" fill="#FFFFFF" transform="translate(0,0)"/>
<path d="" fill="#FFFFFF" transform="translate(0,0)"/>
<path d="" fill="#FFFFFF" transform="translate(0,0)"/>
<path d="" fill="#FFFFFF" transform="translate(0,0)"/>
<path d="" fill="#FFFFFF" transform="translate(0,0)"/>
<path d="" fill="#FFFFFF" transform="translate(0,0)"/>
<path d="" fill="#FFFFFF" transform="translate(0,0)"/>
<path d="" fill="#FFFFFF" transform="translate(0,0)"/>
<path d="" fill="#FFFFFF" transform="translate(0,0)"/>
<path d="" fill="#FFFFFF" transform="translate(0,0)"/>
<path d="" fill="#FFFFFF" transform="translate(0,0)"/>
<path d="" fill="#FFFFFF" transform="translate(0,0)"/>
<path d="" fill="#FFFFFF" transform="translate(0,0)"/>
<path d="" fill="#FFFFFF" transform="translate(0,0)"/>
<path d="" fill="#FFFFFF" transform="translate(0,0)"/>
<path d="" fill="#FFFFFF" transform="translate(0,0)"/>
<path d="" fill="#FFFFFF" transform="translate(0,0)"/>
<path d="" fill="#FFFFFF" transform="translate(0,0)"/>
<path d="" fill="#FFFFFF" transform="translate(0,0)"/>
<path d="" fill="#FFFFFF" transform="translate(0,0)"/>
<path d="" fill="#FFFFFF" transform="translate(0,0)"/>
<path d="" fill="#FFFFFF" transform="translate(0,0)"/>
<path d="" fill="#FFFFFF" transform="translate(0,0)"/>
<path d="" fill="#FFFFFF" transform="translate(0,0)"/>
<path d="" fill="#FFFFFF" transform="translate(0,0)"/>
<path d="" fill="#FFFFFF" transform="translate(0,0)"/>
<path d="" fill="#FFFFFF" transform="translate(0,0)"/>
<path d="" fill="#FFFFFF" transform="translate(0,0)"/>
<path d="" fill="#FFFFFF" transform="translate(0,0)"/>
<path d="" fill="#FFFFFF" transform="translate(0,0)"/>
<path d="" fill="#FFFFFF" transform="translate(0,0)"/>
<path d="" fill="#FFFFFF" transform="translate(0,0)"/>
<path d="" fill="#FFFFFF" transform="translate(0,0)"/>
<path d="" fill="#FFFFFF" transform="translate(0,0)"/>
<path d="" fill="#FFFFFF" transform="translate(0,0)"/>
<path d="" fill="#FFFFFF" transform="translate(0,0)"/>
<path d="" fill="#FFFFFF" transform="translate(0,0)"/>
<path d="" fill="#FFFFFF" transform="translate(0,0)"/>
<path d="" fill="#FFFFFF" transform="translate(0,0)"/>
<path d="" fill="#FFFFFF" transform="translate(0,0)"/>
<path d="" fill="#FFFFFF" transform="translate(0,0)"/>
<path d="" fill="#FFFFFF" transform="translate(0,0)"/>
<path d="" fill="#FFFFFF" transform="translate(0,0)"/>
<path d="" fill="#FFFFFF" transform="translate(0,0)"/>
<path d="" fill="#FFFFFF" transform="translate(0,0)"/>
<path d="" fill="#FFFFFF" transform="translate(0,0)"/>
<path d="" fill="#FFFFFF" transform="translate(0,0)"/>
<path d="" fill="#FFFFFF" transform="translate(0,0)"/>
<path d="" fill="#FFFFFF" transform="translate(0,0)"/>
<path d="" fill="#FFFFFF" transform="translate(0,0)"/>
<path d="" fill="#FFFFFF" transform="translate(0,0)"/>
<path d="" fill="#FFFFFF" transform="translate(0,0)"/>
<path d="" fill="#FFFFFF" transform="translate(0,0)"/>
<path d="" fill="#FFFFFF" transform="translate(0,0)"/>
<path d="" fill="#FFFFFF" transform="translate(0,0)"/>
<path d="" fill="#FFFFFF" transform="translate(0,0)"/>
<path d="" fill="#FFFFFF" transform="translate(0,0)"/>
<path d="" fill="#FFFFFF" transform="translate(0,0)"/>
<path d="" fill="#FFFFFF" transform="translate(0,0)"/>
<path d="" fill="#FFFFFF" transform="translate(0,0)"/>
<path d="" fill="#FFFFFF" transform="translate(0,0)"/>
<path d="" fill="#FFFFFF" transform="translate(0,0)"/>
<path d="" fill="#FFFFFF" transform="translate(0,0)"/>
<path d="" fill="#FFFFFF" transform="translate(0,0)"/>
<path d="" fill="#FFFFFF" transform="translate(0,0)"/>
<path d="" fill="#FFFFFF" transform="translate(0,0)"/>
<path d="" fill="#FFFFFF" transform="translate(0,0)"/>
<path d="" fill="#FFFFFF" transform="translate(0,0)"/>
<path d="" fill="#FFFFFF" transform="translate(0,0)"/>
<path d="" fill="#FFFFFF" transform="translate(0,0)"/>
</svg>
